<svg id="Layer_1" data-name="Layer 1" xmlns="http://www.w3.org/2000/svg" viewBox="0 0 556.3 710.58"><defs><style>.cls-1{fill:#150924;}.cls-2{fill:#e0a76e;}.cls-3{fill:#d9eaf7;}</style></defs><title>23</title><path class="cls-1" d="M1200.19,811.4H719.81c-21,0-38-13.75-38-30.71V131.53c0-17,17-30.71,38-30.71h480.38c21,0,38,13.75,38,30.71V780.69C1238.15,797.65,1221.15,811.4,1200.19,811.4Z" transform="translate(-681.85 -100.82)"/><path class="cls-2" d="M1200.19,800.34H719.81c-13.4,0-24.29-8.81-24.29-19.65V131.53c0-10.84,10.89-19.66,24.29-19.66h480.38c13.4,0,24.29,8.82,24.29,19.66V780.69C1224.48,791.53,1213.59,800.34,1200.19,800.34ZM719.81,117.4c-9.63,0-17.46,6.34-17.46,14.13V780.69c0,7.79,7.83,14.13,17.46,14.13h480.38c9.63,0,17.46-6.34,17.46-14.13V131.53c0-7.79-7.83-14.13-17.46-14.13Z" transform="translate(-681.85 -100.82)"/><path class="cls-3" d="M880.34,552.21l-31.67,7c17.09-12.14,33.22-26.25,51.52-35.92,22.63-12,33.92-30.49,39.87-54.19,6.4,1.53,15.66.79,18.77,4.94,30,40,58.85,80.83,88.2,121.32,9.66,13.33,19.78,26.32,33.66,44.73,10.87-14.6,20.09-25.49,27.22-37.65,1.72-2.92-3.48-10.05-5.79-16,1.34-4.17,5.67-11.43,5.71-18.66.35-53.35-3.7-106.56-2.28-160,.82-30.69.27-61.4,0-92.08,0-5.3-1.23-14.86-3.07-15.14-20.51-3.19-7.25-16.54-6.34-24.57,1.33-11.69,5.66-23.06,8.36-33.22-29-11.41-46.72-2.29-56.39,20.57-10.68,25.26-33.31,42-41.09,70.66-4.74,17.49-27.46,30.09-43.31,46.1C952.44,365.2,940,348.73,928.18,333l-26.71,7.93c3.09-4.1,6.7-7.91,9.15-12.39s6.42-11.79,4.86-13.74c-14.64-18.26-30.33-35.63-45.71-53.26-8.4-14.82-16.79-29.64-23.95-42.26l-36.53,12.18,2.39,19.87c5.45-3.05,8.67-5.3,12.19-6.69,3-1.2,6.41-1.42,9.64-2.07-4.93,6.45-11.15,9.56-16.26,14-9.55,8.35-9.17,31.53.07,36.54-2,17.67-5.69,35.35-5.83,53-.51,63.93,0,127.85.82,191.76,0,3.06,6.4,5.94,9.75,8.85-8.11,9.42-17.37,18.75-2.93,30.23-10.25,19.5-2.37,35.32,12.22,55.73l54-75.08C883.71,555.82,882,554,880.34,552.21Zm120.16-121c-11.8-17.2-6.66-38.05,8.4-54,14.27-15.15,24.87-33.94,41.81-50.25.41,56.86.82,113.72,1.28,177.78l-32.93-45L1002.42,471l-2.67-2.25,14.84-17.94-1.57-2.45L979.35,466q-1.26-2-2.54-4l29.26-19.7C1003.92,438,1002.61,434.3,1000.5,431.23ZM865.17,406.14l-1.85,1.07c1.58-20.79,3.16-41.58,4.87-64.1l10,10.87c14,21.21,28.2,42.27,41.88,63.68,9.53,14.91,4.18,26.57-6.93,39.38-9.72,11.2-15.54,25.95-23.08,39.13l-21,19.92C867.77,478.43,866.47,442.28,865.17,406.14Z" transform="translate(-681.85 -100.82)"/></svg>