<svg id="Layer_1" data-name="Layer 1" xmlns="http://www.w3.org/2000/svg" viewBox="0 0 1407.42 882.98"><defs><style>.cls-1{fill:#150924;}.cls-2{fill:#e0a76e;}.cls-3{fill:#d9eaf7;}.cls-4{font-size:91px;fill:#fff;stroke:#fff;stroke-miterlimit:10;stroke-width:0.5px;font-family:Haettenschweiler;letter-spacing:0.2em;}</style></defs><title>URUZ</title><rect class="cls-1" width="556.3" height="878.37" rx="37.96"/><path class="cls-2" d="M1200.19,965.52H719.81a24.32,24.32,0,0,1-24.29-24.3V138.78a24.32,24.32,0,0,1,24.29-24.3h480.38a24.32,24.32,0,0,1,24.29,24.3V941.22A24.32,24.32,0,0,1,1200.19,965.52ZM719.81,121.32a17.48,17.48,0,0,0-17.46,17.46V941.22a17.48,17.48,0,0,0,17.46,17.46h480.38a17.48,17.48,0,0,0,17.46-17.46V138.78a17.48,17.48,0,0,0-17.46-17.46Z" transform="translate(-681.85 -100.82)"/><path id="path1" class="cls-3" d="M1853.87,528.09c.19,34.44,6.3,68.85,10.28,107.79l12.77-14.65,24.36-36.82q-1.23-8-2.47-16c-1.38-7.3,3.34-15.86,1.74-23-5.19-23.07,10.78-33.69,24.9-44,30.61-22.45,62.38-43.32,93.82-64.61,5.64-3.81,12.44-9.94,17.92-9.2,18.16,2.46,27.76-8.44,36-20.72,3.39-5.07,2.21-13.2,3.11-19.94-7-.49-15.63-3.8-20.81-.93-13.34,7.38-24,20.36-37.82,25.93-30.85,12.45-54.28,33.54-76.85,56.61-2.09,2.13-8.25.28-17.24.28l-22.49,16.36c0-16.71.54-30.49-.16-44.21-.6-11.81,3.79-18.44,14-25.42,40.65-27.82,80.17-57.29,120.35-86.33,7.15,14.66,7.15,14.66,54-11.26-5.53-10-10.51-20.37-17-29.72-1.77-2.57-9-4.14-11.93-2.62-12.11,6.33-23.5,14-35.17,21.18-15.59,9.56-30.1,19.68-44.16,32.2-22.48,20-52.61,31.43-80.38,47,4.79-14.75-7.71-29.28-.44-46.37,3.8-8.92,4-22.69-11-27.17-3.28-9.54-6.56-19.09-10.31-30-12.47,10.26-22.6,16.82-30.21,25.56-4.26,4.89-6.77,13.8-5.77,20.22,2,12.55,11.19,13.82,21.71,8.84-20.85,26.28-6.63,56.65-12.31,84.75h15.93" transform="translate(-681.85 -100.82)"/><text class="cls-4" transform="translate(178.71 821.88)">URUZ</text><path id="URUZ_RUNE" data-name="URUZ RUNE" class="cls-3" d="M995.63,379.93l20.92,13.32c3.51,4.49,6.19,11.58,10.68,13,23,7.46,33.87,23,33.66,46.51-.13,15-2.14,30-2.23,45-.11,18.72,1.88,37.49,1.22,56.18-1.63,46.76-4.51,93.48-6,140.25-.14,4.33,5.87,8.86,9,13.3l-1.15-1.8h5.89l.75,5.62-6.48,16.83,23.8,3.14c-.12-1.55-.26-3.09-.47-4.62l5.18-1.19c.54,1.41,1.09,2.81,1.63,4.22l5.16-6.13,10.74-3.67c-.35-1.83-.67-3.65-1-5.49l4.67-6.94,3.93-6.17c0-2.14,0-4.27,0-6.41,4.14-50.55,9.28-101,12.12-151.66,2.78-49.57,3.64-99.26,4.11-148.91.06-6-6.19-14.44-11.85-17.83-23.64-14.14-48.18-26.78-72.38-40L1020.05,324a36,36,0,0,1-5.17,2.84l.24-.38-5.46,7.45v0l.43-.71.25-.41-.69,1-4.11,6,1.56,7.08,4.19.94-3.57,4.88.51-.88.16-.27-.69,1q-.23-2.85-.6-5.68l-1.56-7.08,4.11-6q0-3.22,0-6.47l-24.36-25.44c-14.13-9.71-27.67-20.45-42.52-28.88-19.52-11.09-47.74-15.29-58.46-31.54-18.59-28.15-36.69-22-59.87-13.74-26.73,9.57-35.12,29.95-22.7,56.52,3.29,7,6.57,15,6.45,22.55-1,68.34-3.07,136.66-4.16,205-.34,20.83,1.36,41.68,2.12,62.53-1.93,8.58-5.51,17.17-5.45,25.74.12,16.67,8.48,36.16,2.4,49.43-16.69,36.45,5.75,60.22,18.65,87.2,31.56-4,55.48-15.62,64-45.57-7.83-14.9-21.36-29-21.52-43.27-.35-32.67,7.13-65.34,8.87-98.14,1-18.95-3-38.16-4.72-57.26,2-9.18,5.36-18.32,5.62-27.55,1.34-47.93,1.88-95.87,2.79-149l69.89,37.86Zm72.61,324.17c-.27-1.49-.53-3-.8-4.48a11.54,11.54,0,0,1,4.27-.63ZM842.4,296.92l-2.25.67-2.33.34h0c-.46-1.71-.93-3.43-1.39-5.15l5-1.11C841.75,293.42,842.08,295.17,842.4,296.92Zm7.06-1.58q-.69-2.55-1.36-5.11l5.24-1Zm2.31-13.13h0c-1.34,2.41-2.67,4.82-4,7.22l-6,1.34L839,287.68q-1.51,2.37-3,4.72-2.58,3.56-5.18,7.1l-8.81,5.83-5.86-6.51L846.14,274l4.27,2.75,0,0A17,17,0,0,1,851.77,282.21Zm-.66-5.92-1-4.31,4.23,2.13Z" transform="translate(-681.85 -100.82)"/></svg>